# Blender 4.5.2 LTS
# www.blender.org
mtllib Bridge.mtl
o Cube.003
v -3.544134 1.963313 -1.278122
v -3.544134 2.076270 -1.278122
v -3.544134 1.963313 -1.778122
v -3.544134 2.076270 -1.778122
v 3.566860 1.963313 -1.278122
v 3.566860 2.076270 -1.278122
v 3.566860 1.963313 -1.778122
v 3.566860 2.076270 -1.778122
v 0.039701 0.433856 1.250000
v 0.051282 0.683587 1.250000
v 0.039701 0.433856 -1.250000
v 0.051282 0.683587 -1.250000
v 0.788896 0.399114 1.250000
v 0.800477 0.648845 1.250000
v 0.788896 0.399114 -1.561648
v 0.800477 0.648845 -1.561648
v 0.909841 0.377712 1.236757
v 0.942277 0.625599 1.236757
v 0.909841 0.377712 -1.552178
v 0.942277 0.625599 -1.552178
v 1.653502 0.280406 1.236757
v 1.685938 0.528293 1.236757
v 1.653502 0.280406 -1.552178
v 1.685938 0.528293 -1.552178
v 1.771365 0.259952 1.190445
v 1.840591 0.500176 1.190445
v 1.771365 0.259952 -1.611561
v 1.840591 0.500176 -1.611561
v 2.492037 0.052272 1.190445
v 2.561264 0.292496 1.190445
v 2.492037 0.052272 -1.437446
v 2.561264 0.292496 -1.437446
v 2.635714 0.021502 1.120986
v 2.665151 0.269763 1.120986
v 2.635714 0.021502 -1.379014
v 2.665151 0.269763 -1.379014
v 3.380496 -0.066809 1.120986
v 3.409933 0.181452 1.120986
v 3.380496 -0.066809 -1.379014
v 3.409933 0.181452 -1.379014
v -0.039701 0.433856 1.250000
v -0.051282 0.683587 1.250000
v -0.039701 0.433856 -1.250000
v -0.051282 0.683587 -1.250000
v -0.788896 0.399114 1.250000
v -0.800477 0.648845 1.250000
v -0.788896 0.399114 -1.561648
v -0.800477 0.648845 -1.561648
v -0.909841 0.377712 1.236757
v -0.942277 0.625599 1.236757
v -0.909841 0.377712 -1.552178
v -0.942277 0.625599 -1.552178
v -1.653502 0.280406 1.236757
v -1.685938 0.528293 1.236757
v -1.653502 0.280406 -1.552178
v -1.685938 0.528293 -1.552178
v -1.771364 0.259952 1.190445
v -1.840591 0.500176 1.190445
v -1.771364 0.259952 -1.611561
v -1.840591 0.500176 -1.611561
v -2.492037 0.052272 1.190445
v -2.561264 0.292496 1.190445
v -2.492037 0.052272 -1.437446
v -2.561264 0.292496 -1.437446
v -2.635714 0.021502 1.120986
v -2.665151 0.269763 1.120986
v -2.635714 0.021502 -1.379014
v -2.665151 0.269763 -1.379014
v -3.380496 -0.066809 1.120986
v -3.409933 0.181452 1.120986
v -3.380496 -0.066809 -1.379014
v -3.409933 0.181452 -1.379014
v -3.488293 -0.072189 -1.249903
v -3.488293 0.427811 -1.249903
v -3.488293 -0.072189 -1.507437
v -3.488293 0.427811 -1.507437
v -1.963202 -0.072189 -1.249903
v -1.963202 0.427811 -1.249903
v -1.963202 -0.072189 -1.507437
v -1.963202 0.427811 -1.507437
v -0.739518 0.377073 -1.249903
v -0.739518 0.877073 -1.249903
v -0.739518 0.377073 -1.507437
v -0.739518 0.877073 -1.507437
v 0.785573 0.377073 -1.249903
v 0.785573 0.877073 -1.249903
v 0.785573 0.377073 -1.507437
v 0.785573 0.877073 -1.507437
v 2.009257 -0.095835 -1.249903
v 2.009257 0.404166 -1.249903
v 2.009257 -0.095835 -1.507437
v 2.009257 0.404166 -1.507437
v 3.534348 -0.095835 -1.249903
v 3.534348 0.404166 -1.249903
v 3.534348 -0.095835 -1.507437
v 3.534348 0.404166 -1.507437
v 0.354819 0.382390 -1.506061
v 0.464386 0.870238 -1.506061
v 0.354819 0.382390 -1.763595
v 0.464386 0.870238 -1.763595
v 2.231922 -0.039195 -1.506061
v 2.341490 0.448652 -1.506061
v 2.231922 -0.039195 -1.763595
v 2.341490 0.448652 -1.763595
v -2.297064 -0.038733 -1.506061
v -2.406376 0.449172 -1.506061
v -2.297064 -0.038733 -1.763595
v -2.406376 0.449172 -1.763595
v -0.419740 0.381871 -1.506061
v -0.529052 0.869776 -1.506061
v -0.419740 0.381871 -1.763595
v -0.529052 0.869776 -1.763595
v 3.262842 0.033867 -1.402988
v 3.262842 2.033866 -1.402988
v 3.262842 0.033867 -1.602988
v 3.262842 2.033866 -1.602988
v 3.462842 0.033867 -1.402988
v 3.462842 2.033866 -1.402988
v 3.462842 0.033867 -1.602988
v 3.462842 2.033866 -1.602988
v 2.262842 0.033867 -1.402988
v 2.262842 2.033866 -1.402988
v 2.262842 0.033867 -1.602988
v 2.262842 2.033866 -1.602988
v 2.462842 0.033867 -1.402988
v 2.462842 2.033866 -1.402988
v 2.462842 0.033867 -1.602988
v 2.462842 2.033866 -1.602988
v 1.362842 0.329096 -1.402988
v 1.362842 2.033866 -1.402988
v 1.362842 0.329096 -1.602988
v 1.362842 2.033866 -1.602988
v 1.562842 0.329096 -1.402988
v 1.562842 2.033866 -1.402988
v 1.562842 0.329096 -1.602988
v 1.562842 2.033866 -1.602988
v 0.362842 0.395464 -1.402988
v 0.362842 2.033866 -1.402988
v 0.362842 0.395464 -1.602988
v 0.362842 2.033866 -1.602988
v 0.562842 0.395464 -1.402988
v 0.562842 2.033866 -1.402988
v 0.562842 0.395464 -1.602988
v 0.562842 2.033866 -1.602988
v -3.262842 0.033867 -1.402988
v -3.262842 2.033866 -1.402988
v -3.262842 0.033867 -1.602988
v -3.262842 2.033866 -1.602988
v -3.462842 0.033867 -1.402988
v -3.462842 2.033866 -1.402988
v -3.462842 0.033867 -1.602988
v -3.462842 2.033866 -1.602988
v -2.262842 0.033867 -1.402988
v -2.262842 2.033866 -1.402988
v -2.262842 0.033867 -1.602988
v -2.262842 2.033866 -1.602988
v -2.462842 0.033867 -1.402988
v -2.462842 2.033866 -1.402988
v -2.462842 0.033867 -1.602988
v -2.462842 2.033866 -1.602988
v -1.362842 0.329096 -1.402988
v -1.362842 2.033866 -1.402988
v -1.362842 0.329096 -1.602988
v -1.362842 2.033866 -1.602988
v -1.562842 0.329096 -1.402988
v -1.562842 2.033866 -1.402988
v -1.562842 0.329096 -1.602988
v -1.562842 2.033866 -1.602988
v -0.362842 0.395464 -1.402988
v -0.362842 2.033866 -1.402988
v -0.362842 0.395464 -1.602988
v -0.362842 2.033866 -1.602988
v -0.562842 0.395464 -1.402988
v -0.562842 2.033866 -1.402988
v -0.562842 0.395464 -1.602988
v -0.562842 2.033866 -1.602988
vn -1.0000 -0.0000 -0.0000
vn -0.0000 -0.0000 -1.0000
vn 1.0000 -0.0000 -0.0000
vn -0.0000 -0.0000 1.0000
vn -0.0000 -1.0000 -0.0000
vn -0.0000 1.0000 -0.0000
vn -0.9989 0.0463 -0.0000
vn -0.3833 0.0178 -0.9234
vn 0.9989 -0.0463 -0.0000
vn -0.0463 -0.9989 -0.0000
vn 0.0463 0.9989 -0.0000
vn -0.9915 0.1297 -0.0000
vn 0.9915 -0.1297 -0.0000
vn -0.1297 -0.9915 -0.0000
vn 0.1297 0.9915 -0.0000
vn -0.9609 0.2769 -0.0000
vn 0.2173 -0.0626 -0.9741
vn 0.9609 -0.2769 -0.0000
vn -0.2769 -0.9609 -0.0000
vn 0.2769 0.9609 -0.0000
vn -0.9930 0.1177 -0.0000
vn 0.9930 -0.1177 -0.0000
vn -0.1177 -0.9930 -0.0000
vn 0.1177 0.9930 -0.0000
vn 0.9989 0.0463 -0.0000
vn 0.3833 0.0178 -0.9234
vn -0.9989 -0.0463 -0.0000
vn 0.0463 -0.9989 -0.0000
vn -0.0463 0.9989 -0.0000
vn 0.9915 0.1297 -0.0000
vn -0.9915 -0.1297 -0.0000
vn 0.1297 -0.9915 -0.0000
vn -0.1297 0.9915 -0.0000
vn 0.9609 0.2769 -0.0000
vn -0.2173 -0.0626 -0.9741
vn -0.9609 -0.2769 -0.0000
vn 0.2769 -0.9609 -0.0000
vn -0.2769 0.9609 -0.0000
vn 0.9930 0.1177 -0.0000
vn -0.9930 -0.1177 -0.0000
vn 0.1177 -0.9930 -0.0000
vn -0.1177 0.9930 -0.0000
vn -0.9757 0.2191 -0.0000
vn 0.9757 -0.2191 -0.0000
vn -0.2191 -0.9757 -0.0000
vn 0.2191 0.9757 -0.0000
vn -0.9758 -0.2186 -0.0000
vn 0.9758 0.2186 -0.0000
vn 0.2186 -0.9758 -0.0000
vn -0.2186 0.9758 -0.0000
vt 0.502394 0.160534
vt 0.502394 0.276966
vt 0.385963 0.276966
vt 0.385963 0.160534
vt 0.269531 0.276966
vt 0.269531 0.160534
vt 0.153100 0.276966
vt 0.153100 0.160534
vt 0.036668 0.276966
vt 0.036668 0.160534
vt 0.269531 0.044103
vt 0.153100 0.044103
vt 0.269531 0.393397
vt 0.153100 0.393397
vt 0.144877 0.500282
vt 0.265063 0.500282
vt 0.265063 0.620469
vt 0.144877 0.620469
vt 0.265063 0.740655
vt 0.144877 0.740655
vt 0.265063 0.860841
vt 0.144877 0.860841
vt 0.265063 0.981028
vt 0.144877 0.981028
vt 0.024690 0.740655
vt 0.024690 0.860841
vt 0.385250 0.740655
vt 0.385250 0.860841
vt 0.441279 0.855150
vt 0.441279 0.727348
vt 0.569081 0.727348
vt 0.569081 0.855150
vt 0.696883 0.727348
vt 0.696883 0.855150
vt 0.824685 0.727348
vt 0.824685 0.855150
vt 0.952487 0.727348
vt 0.952487 0.855150
vt 0.696883 0.982952
vt 0.824685 0.982952
vt 0.696883 0.599546
vt 0.824685 0.599546
vt 0.703457 0.211356
vt 0.797401 0.315086
vt 0.693671 0.409030
vt 0.599727 0.305300
vt 0.589941 0.502974
vt 0.495997 0.399244
vt 0.486211 0.596918
vt 0.392267 0.493189
vt 0.382481 0.690863
vt 0.288537 0.587133
vt 0.402053 0.295514
vt 0.298323 0.389459
vt 0.683885 0.606704
vt 0.580155 0.700648
s 0
usemtl Material.001
f 1/1/1 2/2/1 4/3/1 3/4/1
f 3/4/2 4/3/2 8/5/2 7/6/2
f 7/6/3 8/5/3 6/7/3 5/8/3
f 5/8/4 6/7/4 2/9/4 1/10/4
f 3/11/5 7/6/5 5/8/5 1/12/5
f 8/5/6 4/13/6 2/14/6 6/7/6
f 9/15/7 10/16/7 12/17/7 11/18/7
f 11/18/8 12/17/8 16/19/8 15/20/8
f 15/20/9 16/19/9 14/21/9 13/22/9
f 13/22/4 14/21/4 10/23/4 9/24/4
f 11/25/10 15/20/10 13/22/10 9/26/10
f 16/19/11 12/27/11 10/28/11 14/21/11
f 17/15/12 18/16/12 20/17/12 19/18/12
f 19/18/2 20/17/2 24/19/2 23/20/2
f 23/20/13 24/19/13 22/21/13 21/22/13
f 21/22/4 22/21/4 18/23/4 17/24/4
f 19/25/14 23/20/14 21/22/14 17/26/14
f 24/19/15 20/27/15 18/28/15 22/21/15
f 25/15/16 26/16/16 28/17/16 27/18/16
f 27/18/17 28/17/17 32/19/17 31/20/17
f 31/20/18 32/19/18 30/21/18 29/22/18
f 29/22/4 30/21/4 26/23/4 25/24/4
f 27/25/19 31/20/19 29/22/19 25/26/19
f 32/19/20 28/27/20 26/28/20 30/21/20
f 33/15/21 34/16/21 36/17/21 35/18/21
f 35/18/2 36/17/2 40/19/2 39/20/2
f 39/20/22 40/19/22 38/21/22 37/22/22
f 37/22/4 38/21/4 34/23/4 33/24/4
f 35/25/23 39/20/23 37/22/23 33/26/23
f 40/19/24 36/27/24 34/28/24 38/21/24
f 41/15/25 43/18/25 44/17/25 42/16/25
f 43/18/26 47/20/26 48/19/26 44/17/26
f 47/20/27 45/22/27 46/21/27 48/19/27
f 45/22/4 41/24/4 42/23/4 46/21/4
f 43/25/28 41/26/28 45/22/28 47/20/28
f 48/19/29 46/21/29 42/28/29 44/27/29
f 49/15/30 51/18/30 52/17/30 50/16/30
f 51/18/2 55/20/2 56/19/2 52/17/2
f 55/20/31 53/22/31 54/21/31 56/19/31
f 53/22/4 49/24/4 50/23/4 54/21/4
f 51/25/32 49/26/32 53/22/32 55/20/32
f 56/19/33 54/21/33 50/28/33 52/27/33
f 57/15/34 59/18/34 60/17/34 58/16/34
f 59/18/35 63/20/35 64/19/35 60/17/35
f 63/20/36 61/22/36 62/21/36 64/19/36
f 61/22/4 57/24/4 58/23/4 62/21/4
f 59/25/37 57/26/37 61/22/37 63/20/37
f 64/19/38 62/21/38 58/28/38 60/27/38
f 65/15/39 67/18/39 68/17/39 66/16/39
f 67/18/2 71/20/2 72/19/2 68/17/2
f 71/20/40 69/22/40 70/21/40 72/19/40
f 69/22/4 65/24/4 66/23/4 70/21/4
f 67/25/41 65/26/41 69/22/41 71/20/41
f 72/19/42 70/21/42 66/28/42 68/27/42
f 73/29/1 74/30/1 76/31/1 75/32/1
f 75/32/2 76/31/2 80/33/2 79/34/2
f 79/34/3 80/33/3 78/35/3 77/36/3
f 77/36/4 78/35/4 74/37/4 73/38/4
f 75/39/5 79/34/5 77/36/5 73/40/5
f 80/33/6 76/41/6 74/42/6 78/35/6
f 81/29/1 82/30/1 84/31/1 83/32/1
f 83/32/2 84/31/2 88/33/2 87/34/2
f 87/34/3 88/33/3 86/35/3 85/36/3
f 85/36/4 86/35/4 82/37/4 81/38/4
f 83/39/5 87/34/5 85/36/5 81/40/5
f 88/33/6 84/41/6 82/42/6 86/35/6
f 89/29/1 90/30/1 92/31/1 91/32/1
f 91/32/2 92/31/2 96/33/2 95/34/2
f 95/34/3 96/33/3 94/35/3 93/36/3
f 93/36/4 94/35/4 90/37/4 89/38/4
f 91/39/5 95/34/5 93/36/5 89/40/5
f 96/33/6 92/41/6 90/42/6 94/35/6
f 97/29/43 98/30/43 100/31/43 99/32/43
f 99/32/2 100/31/2 104/33/2 103/34/2
f 103/34/44 104/33/44 102/35/44 101/36/44
f 101/36/4 102/35/4 98/37/4 97/38/4
f 99/39/45 103/34/45 101/36/45 97/40/45
f 104/33/46 100/41/46 98/42/46 102/35/46
f 105/29/47 106/30/47 108/31/47 107/32/47
f 107/32/2 108/31/2 112/33/2 111/34/2
f 111/34/48 112/33/48 110/35/48 109/36/48
f 109/36/4 110/35/4 106/37/4 105/38/4
f 107/39/49 111/34/49 109/36/49 105/40/49
f 112/33/50 108/41/50 106/42/50 110/35/50
f 113/43/1 114/44/1 116/45/1 115/46/1
f 115/46/2 116/45/2 120/47/2 119/48/2
f 119/48/3 120/47/3 118/49/3 117/50/3
f 117/50/4 118/49/4 114/51/4 113/52/4
f 115/53/5 119/48/5 117/50/5 113/54/5
f 120/47/6 116/55/6 114/56/6 118/49/6
f 121/43/1 122/44/1 124/45/1 123/46/1
f 123/46/2 124/45/2 128/47/2 127/48/2
f 127/48/3 128/47/3 126/49/3 125/50/3
f 125/50/4 126/49/4 122/51/4 121/52/4
f 123/53/5 127/48/5 125/50/5 121/54/5
f 128/47/6 124/55/6 122/56/6 126/49/6
f 129/43/1 130/44/1 132/45/1 131/46/1
f 131/46/2 132/45/2 136/47/2 135/48/2
f 135/48/3 136/47/3 134/49/3 133/50/3
f 133/50/4 134/49/4 130/51/4 129/52/4
f 131/53/5 135/48/5 133/50/5 129/54/5
f 136/47/6 132/55/6 130/56/6 134/49/6
f 137/43/1 138/44/1 140/45/1 139/46/1
f 139/46/2 140/45/2 144/47/2 143/48/2
f 143/48/3 144/47/3 142/49/3 141/50/3
f 141/50/4 142/49/4 138/51/4 137/52/4
f 139/53/5 143/48/5 141/50/5 137/54/5
f 144/47/6 140/55/6 138/56/6 142/49/6
f 145/43/3 147/46/3 148/45/3 146/44/3
f 147/46/2 151/48/2 152/47/2 148/45/2
f 151/48/1 149/50/1 150/49/1 152/47/1
f 149/50/4 145/52/4 146/51/4 150/49/4
f 147/53/5 145/54/5 149/50/5 151/48/5
f 152/47/6 150/49/6 146/56/6 148/55/6
f 153/43/3 155/46/3 156/45/3 154/44/3
f 155/46/2 159/48/2 160/47/2 156/45/2
f 159/48/1 157/50/1 158/49/1 160/47/1
f 157/50/4 153/52/4 154/51/4 158/49/4
f 155/53/5 153/54/5 157/50/5 159/48/5
f 160/47/6 158/49/6 154/56/6 156/55/6
f 161/43/3 163/46/3 164/45/3 162/44/3
f 163/46/2 167/48/2 168/47/2 164/45/2
f 167/48/1 165/50/1 166/49/1 168/47/1
f 165/50/4 161/52/4 162/51/4 166/49/4
f 163/53/5 161/54/5 165/50/5 167/48/5
f 168/47/6 166/49/6 162/56/6 164/55/6
f 169/43/3 171/46/3 172/45/3 170/44/3
f 171/46/2 175/48/2 176/47/2 172/45/2
f 175/48/1 173/50/1 174/49/1 176/47/1
f 173/50/4 169/52/4 170/51/4 174/49/4
f 171/53/5 169/54/5 173/50/5 175/48/5
f 176/47/6 174/49/6 170/56/6 172/55/6
