# Blender 4.5.2 LTS
# www.blender.org
mtllib Far-Wall.mtl
o Cube
v -1.000000 12.000000 -1.000000
v 0.255589 7.174668 0.938625
v 3.693509 3.113131 1.378166
v -0.954485 6.487677 -0.968132
v 7.055380 5.612220 1.090846
v 6.791967 6.976182 -1.014727
v 7.000000 0.000000 1.000000
v 5.002449 6.761629 0.956802
v -0.995289 3.318970 0.910190
v -0.990574 8.782046 1.086949
v 3.032636 6.036688 1.214959
v 6.952134 10.349416 0.744982
v 4.529174 4.889138 1.178343
v -1.043894 3.906400 -0.955948
v 4.372045 0.038891 1.140947
v 3.051038 0.150836 0.961319
v 7.000000 0.000000 -1.000000
v -1.000000 0.000000 -1.000000
v 7.027690 2.806110 0.763465
v -1.000000 0.000000 1.000000
v 5.753356 3.951628 0.865219
v 0.209417 4.898157 1.101067
v 6.926005 8.549761 1.406351
v 3.957840 8.585260 0.808405
v -0.176960 9.235951 1.170815
v -0.827233 6.162535 0.838898
v 3.973175 11.993489 -0.952856
v 1.602570 11.982296 1.130433
v 3.142827 10.101286 1.358785
v -1.000000 12.000000 1.000000
v 7.000000 12.000000 -1.000000
v 7.000000 12.000000 1.000000
vn 0.0012 1.0000 0.0068
vn 0.0068 1.0000 -0.0000
vn -0.0497 0.0469 0.9977
vn 1.0000 -0.0099 -0.0000
vn -0.0148 -0.9999 -0.0000
vn -0.9999 -0.0033 -0.0139
vn -0.0021 1.0000 0.0030
vn -0.0057 -0.0045 -1.0000
vn -0.2029 0.0365 0.9785
vn -0.1594 0.0735 0.9845
vn 0.0148 -0.1425 0.9897
vn -0.0175 0.1199 0.9926
vn -0.1011 -0.0430 0.9939
vn -0.0693 0.0724 0.9950
vn -0.0180 -0.0553 0.9983
vn 0.0956 0.0931 0.9911
vn 0.2438 -0.0056 0.9698
vn -0.0246 -0.1156 0.9930
vn -0.0034 -0.0945 0.9955
vn 0.0244 -0.1533 0.9879
vn -0.9965 0.0349 0.0764
vn 0.0825 0.1277 0.9884
vn 0.9989 -0.0281 -0.0370
vn -0.1817 0.3415 0.9221
vn 0.1400 0.2315 0.9627
vn -0.0066 -0.0023 -1.0000
vn -0.9972 0.0601 0.0449
vn -0.0000 -0.9971 0.0767
vn 0.9991 -0.0413 -0.0117
vn 0.1700 -0.2543 0.9521
vn -0.0724 0.0616 0.9955
vn 0.0315 -0.3261 0.9448
vn -0.1978 -0.0336 0.9797
vn 0.0718 -0.0968 0.9927
vn -0.0743 -0.9945 -0.0732
vn -0.0156 0.0036 -0.9999
vn -0.1171 0.0265 0.9928
vn -0.9960 -0.0676 0.0580
vn -0.0357 -0.1193 0.9922
vn 0.2785 0.0431 0.9595
vn -0.0000 0.0113 -0.9999
vn 0.9945 0.0534 -0.0898
vn -0.0976 -0.0585 0.9935
vn -0.0066 0.0086 -0.9999
vn 0.0095 -0.0057 -0.9999
vn -0.9996 0.0021 0.0267
vn -1.0000 -0.0083 -0.0000
vn -0.0981 0.0271 0.9948
vn -0.9999 -0.0112 -0.0000
vn 0.9940 0.0294 -0.1053
vn -0.1268 -0.1114 0.9857
vn 0.9996 -0.0290 -0.0000
vn -0.0293 0.1678 0.9854
vn 0.0546 0.0833 0.9950
vn 0.1779 -0.0366 0.9834
vn 0.1911 0.1261 0.9734
vn -0.1429 -0.1075 0.9839
vn 0.0372 -0.9993 -0.0000
vn -0.0033 1.0000 -0.0000
vt 0.072356 0.470149
vt 0.070263 0.625817
vt 0.005780 0.543131
vt 0.007928 0.624344
vt 0.882570 0.637884
vt 0.796711 0.609878
vt 0.883839 0.556453
vt 0.010462 0.175213
vt 0.021527 0.087739
vt 0.014993 0.000094
vt 0.077406 0.000699
vt 0.510636 0.382872
vt 0.511976 0.463439
vt 0.449007 0.380952
vt 0.065209 0.797605
vt 0.002844 0.724576
vt 0.074064 0.375408
vt 0.242550 0.626782
vt 0.230757 0.384322
vt 0.323230 0.630746
vt 0.660459 0.595761
vt 0.699842 0.629094
vt 0.610995 0.633555
vt 0.731888 0.595297
vt 0.605424 0.486458
vt 0.507321 0.632858
vt 0.510432 0.505171
vt 0.661146 0.461044
vt 0.696540 0.507923
vt 0.720251 0.446063
vt 0.632603 0.421521
vt 0.597313 0.382082
vt 0.684811 0.381342
vt 0.781977 0.635077
vt 0.888871 0.388452
vt 0.836856 0.388361
vt 0.063365 0.878107
vt 0.008535 0.806568
vt 0.777471 0.479620
vt 0.020161 0.323296
vt 0.000094 0.266919
vt 0.076213 0.218505
vt 0.777052 0.384793
vt 0.826095 0.507558
vt 0.004832 0.895325
vt 0.445417 0.631131
vt 0.000094 0.998727
vt 0.062436 0.999906
vt 0.011651 0.374740
s 0
usemtl Material.001
f 27/1/1 1/2/1 28/3/1
f 28/3/2 1/2/2 30/4/2
f 30/5/3 25/6/3 28/7/3
f 5/8/4 19/9/4 7/10/4 17/11/4
f 7/12/5 15/13/5 17/14/5
f 30/4/6 4/15/6 10/16/6
f 28/3/7 31/17/7 27/1/7
f 4/18/8 6/19/8 14/20/8
f 22/21/9 26/22/9 9/23/9
f 22/21/10 2/24/10 26/22/10
f 3/25/11 20/26/11 16/27/11
f 13/28/12 22/21/12 3/25/12
f 22/21/13 9/23/13 3/25/13
f 11/29/14 2/24/14 22/21/14
f 13/28/15 11/29/15 22/21/15
f 8/30/16 11/29/16 13/28/16
f 3/25/17 21/31/17 13/28/17
f 21/31/18 19/32/18 5/33/18
f 2/24/19 10/34/19 26/22/19
f 32/35/20 28/7/20 12/36/20
f 14/37/21 26/38/21 4/15/21
f 8/30/22 24/39/22 11/29/22
f 12/40/23 23/41/23 6/42/23
f 23/43/24 12/36/24 24/39/24
f 29/44/25 12/36/25 28/7/25
f 6/19/26 17/14/26 14/20/26
f 9/45/27 26/38/27 14/37/27
f 17/14/28 16/27/28 18/46/28
f 31/17/29 12/40/29 6/42/29
f 24/39/30 12/36/30 29/44/30
f 28/7/31 25/6/31 29/44/31
f 24/39/32 29/44/32 25/6/32
f 24/39/33 8/30/33 23/43/33
f 25/6/34 2/24/34 24/39/34
f 16/27/35 17/14/35 15/13/35
f 6/19/36 27/1/36 31/17/36
f 25/6/37 30/5/37 10/34/37
f 4/15/38 26/38/38 10/16/38
f 2/24/39 25/6/39 10/34/39
f 8/30/40 13/28/40 21/31/40
f 17/14/41 18/46/41 14/20/41
f 23/41/42 5/8/42 6/42/42
f 21/31/43 5/33/43 8/30/43
f 27/1/44 6/19/44 4/18/44
f 27/1/45 4/18/45 1/2/45
f 9/45/46 14/37/46 20/47/46
f 1/2/47 4/15/47 30/4/47
f 3/25/48 9/23/48 20/26/48
f 14/37/49 18/48/49 20/47/49
f 6/42/50 5/8/50 17/11/50
f 8/30/51 5/33/51 23/43/51
f 12/40/52 31/17/52 32/49/52
f 2/24/53 11/29/53 24/39/53
f 15/13/54 7/12/54 19/32/54
f 19/32/55 3/25/55 15/13/55
f 19/32/56 21/31/56 3/25/56
f 16/27/57 15/13/57 3/25/57
f 16/27/58 20/26/58 18/46/58
f 28/3/59 32/49/59 31/17/59
