# Blender 4.5.2 LTS
# www.blender.org
mtllib Portal.mtl
o Plane
v 1.000000 0.000000 0.000000
v 1.000000 0.250000 0.000000
v 0.750000 0.250000 0.000000
v 0.923880 0.000000 0.382683
v 0.923880 0.250000 0.382683
v 0.692910 0.250000 0.287013
v 0.707107 0.000000 0.707107
v 0.707107 0.250000 0.707107
v 0.530330 0.250000 0.530330
v 0.382683 0.000000 0.923880
v 0.382683 0.250000 0.923880
v 0.287013 0.250000 0.692910
v -0.000000 0.000000 1.000000
v -0.000000 0.250000 1.000000
v -0.000000 0.250000 0.750000
v -0.382684 0.000000 0.923880
v -0.382684 0.250000 0.923880
v -0.287013 0.250000 0.692910
v -0.707107 0.000000 0.707107
v -0.707107 0.250000 0.707107
v -0.530330 0.250000 0.530330
v -0.923880 0.000000 0.382683
v -0.923880 0.250000 0.382683
v -0.692910 0.250000 0.287012
v -1.000000 0.000000 -0.000000
v -1.000000 0.250000 -0.000000
v -0.750000 0.250000 -0.000000
v -0.923880 0.000000 -0.382683
v -0.923880 0.250000 -0.382683
v -0.692910 0.250000 -0.287013
v -0.707107 0.000000 -0.707107
v -0.707107 0.250000 -0.707107
v -0.530330 0.250000 -0.530330
v -0.382683 0.000000 -0.923880
v -0.382683 0.250000 -0.923880
v -0.287012 0.250000 -0.692910
v 0.000000 0.000000 -1.000000
v 0.000000 0.250000 -1.000000
v 0.000000 0.250000 -0.750000
v 0.382684 0.000000 -0.923879
v 0.382684 0.250000 -0.923879
v 0.287013 0.250000 -0.692910
v 0.707107 0.000000 -0.707107
v 0.707107 0.250000 -0.707107
v 0.530330 0.250000 -0.530330
v 0.923880 0.000000 -0.382683
v 0.923880 0.250000 -0.382683
v 0.692910 0.250000 -0.287013
v 1.000000 0.320000 0.000000
v 0.750000 0.320000 0.000000
v 0.707107 0.320000 0.707107
v 0.923880 0.320000 0.382683
v 0.530330 0.320000 0.530330
v 0.692910 0.320000 0.287013
v -0.000000 0.320000 1.000000
v 0.382683 0.320000 0.923880
v -0.000000 0.320000 0.750000
v 0.287013 0.320000 0.692910
v -0.707107 0.320000 0.707107
v -0.382684 0.320000 0.923880
v -0.530330 0.320000 0.530330
v -0.287013 0.320000 0.692910
v -1.000000 0.320000 -0.000000
v -0.923880 0.320000 0.382683
v -0.750000 0.320000 -0.000000
v -0.692910 0.320000 0.287012
v -0.707107 0.320000 -0.707107
v -0.923880 0.320000 -0.382683
v -0.530330 0.320000 -0.530330
v -0.692910 0.320000 -0.287013
v 0.000000 0.320000 -1.000000
v -0.382683 0.320000 -0.923880
v 0.000000 0.320000 -0.750000
v -0.287012 0.320000 -0.692910
v 0.707107 0.320000 -0.707107
v 0.382684 0.320000 -0.923879
v 0.530330 0.320000 -0.530330
v 0.287013 0.320000 -0.692910
v 0.923880 0.320000 -0.382683
v 0.692910 0.320000 -0.287013
v 0.750000 0.150077 0.000000
v 0.692910 0.150077 0.287013
v 0.530330 0.150077 0.530330
v 0.287013 0.150077 0.692910
v -0.000000 0.150077 0.750000
v -0.287013 0.150077 0.692910
v -0.530330 0.150077 0.530330
v -0.692910 0.150077 0.287012
v -0.750000 0.150077 -0.000000
v -0.692910 0.150077 -0.287013
v -0.530330 0.150077 -0.530330
v -0.287012 0.150077 -0.692910
v 0.000000 0.150077 -0.750000
v 0.287013 0.150077 -0.692910
v 0.530330 0.150077 -0.530330
v 0.692910 0.150077 -0.287013
vn 0.9808 -0.0000 0.1951
vn 0.8315 -0.0000 0.5556
vn 0.5556 -0.0000 0.8315
vn 0.1951 -0.0000 0.9808
vn -0.1951 -0.0000 0.9808
vn -0.5556 -0.0000 0.8315
vn -0.8315 -0.0000 0.5556
vn -0.9808 -0.0000 0.1951
vn -0.9808 -0.0000 -0.1951
vn -0.8315 -0.0000 -0.5556
vn -0.5556 -0.0000 -0.8315
vn -0.1951 -0.0000 -0.9808
vn 0.1951 -0.0000 -0.9808
vn 0.5556 -0.0000 -0.8315
vn 0.8315 -0.0000 -0.5556
vn 0.9808 -0.0000 -0.1951
vn -0.0000 1.0000 -0.0000
vn -0.3827 -0.0000 0.9239
vn -0.0000 -0.0000 -1.0000
vn 0.3827 -0.0000 0.9239
vn -0.7071 -0.0000 -0.7071
vn 0.7071 -0.0000 -0.7071
vn -0.9239 -0.0000 0.3827
vn 1.0000 -0.0000 -0.0000
vn -0.0000 -0.0000 1.0000
vn -0.9239 -0.0000 -0.3827
vn 0.7071 -0.0000 0.7071
vn 0.3827 -0.0000 -0.9239
vn -0.3827 -0.0000 -0.9239
vn -0.7071 -0.0000 0.7071
vn 0.9239 -0.0000 -0.3827
vn -1.0000 -0.0000 -0.0000
vn 0.9239 -0.0000 0.3827
vt 0.260381 0.883084
vt 0.296074 0.768342
vt 0.379269 0.804879
vt 0.349921 0.910937
vt 0.448551 0.821425
vt 0.432473 0.932465
vt 0.536230 0.838159
vt 0.521644 0.948928
vt 0.609549 0.848510
vt 0.607460 0.960930
vt 0.700250 0.852569
vt 0.700897 0.965805
vt 0.777520 0.847839
vt 0.789058 0.964953
vt 0.883033 0.840373
vt 0.880981 0.961067
vt 0.969890 0.858312
vt 0.959745 0.965805
vt 0.224179 0.791175
vt 0.095890 0.749452
vt 0.138391 0.656659
vt 0.256738 0.691063
vt 0.158361 0.579382
vt 0.281928 0.598799
vt 0.179977 0.482883
vt 0.300993 0.499281
vt 0.187302 0.402900
vt 0.313072 0.404163
vt 0.194181 0.301815
vt 0.318429 0.301976
vt 0.189888 0.217656
vt 0.318543 0.205372
vt 0.181957 0.104709
vt 0.314864 0.103403
vt 0.195390 0.004898
vt 0.317838 0.012354
vt 0.328870 0.719942
vt 0.392125 0.745229
vt 0.071640 0.641023
vt 0.101257 0.618967
vt 0.122520 0.630620
vt 0.461666 0.761818
vt 0.535090 0.777117
vt 0.718241 0.830630
vt 0.749446 0.831790
vt 0.610768 0.783344
vt 0.691081 0.787495
vt 0.157435 0.083913
vt 0.165111 0.000136
vt 0.770919 0.779651
vt 0.859726 0.770066
vt 0.041993 0.711696
vt 0.074747 0.779635
vt 0.020850 0.741879
vt 0.436302 0.780008
vt 0.412232 0.771217
vt 0.091610 0.563041
vt 0.110566 0.480572
vt 0.117051 0.397260
vt 0.142482 0.423440
vt 0.136672 0.452457
vt 0.123139 0.310410
vt 0.901129 0.785809
vt 0.903648 0.818275
vt 0.115776 0.223740
vt 0.105628 0.127483
vt 0.750178 0.808188
vt 0.402209 0.790322
vt 0.429073 0.799978
vt 0.556325 0.821017
vt 0.561108 0.800235
vt 0.587006 0.806377
vt 0.584569 0.829229
vt 0.721757 0.807433
vt 0.963997 0.764065
vt 0.975611 0.832589
vt 0.111629 0.592087
vt 0.133915 0.600677
vt 0.160058 0.460196
vt 0.166412 0.428337
vt 0.170423 0.281776
vt 0.145244 0.277547
vt 0.146477 0.246694
vt 0.172093 0.247841
vt 0.121670 0.083654
vt 0.096411 0.022905
vt 0.055436 0.042493
vt 0.268970 0.749977
vt 0.301766 0.701577
vt 0.944674 0.722386
vt 0.042690 0.152529
vt 0.000136 0.071554
vt 0.059979 0.233454
vt 0.066865 0.314443
vt 0.063313 0.395915
vt 0.055913 0.475633
vt 0.040460 0.553994
vt 0.022699 0.628821
vt 0.000136 0.696283
vt 0.836231 0.710286
vt 0.915819 0.668033
vt 0.761036 0.727697
vt 0.686333 0.735629
vt 0.611336 0.734029
vt 0.538958 0.728172
vt 0.468838 0.716017
vt 0.402182 0.701552
vt 0.341923 0.682544
vt 0.975499 0.411519
vt 0.927604 0.527146
vt 0.839107 0.615644
vt 0.723479 0.663539
vt 0.598324 0.663539
vt 0.482697 0.615644
vt 0.394199 0.527146
vt 0.346304 0.411519
vt 0.346304 0.286364
vt 0.394199 0.170736
vt 0.482697 0.082239
vt 0.598324 0.034344
vt 0.723479 0.034344
vt 0.839107 0.082239
vt 0.927604 0.170736
vt 0.975499 0.286364
s 0
usemtl Material.001
f 1/1/1 2/2/1 5/3/1 4/4/1
f 4/4/2 5/3/2 8/5/2 7/6/2
f 7/6/3 8/5/3 11/7/3 10/8/3
f 10/8/4 11/7/4 14/9/4 13/10/4
f 13/10/5 14/9/5 17/11/5 16/12/5
f 16/12/6 17/11/6 20/13/6 19/14/6
f 19/14/7 20/13/7 23/15/7 22/16/7
f 22/16/8 23/15/8 26/17/8 25/18/8
f 25/19/9 26/20/9 29/21/9 28/22/9
f 28/22/10 29/21/10 32/23/10 31/24/10
f 31/24/11 32/23/11 35/25/11 34/26/11
f 34/26/12 35/25/12 38/27/12 37/28/12
f 37/28/13 38/27/13 41/29/13 40/30/13
f 40/30/14 41/29/14 44/31/14 43/32/14
f 43/32/15 44/31/15 47/33/15 46/34/15
f 46/34/16 47/33/16 2/35/16 1/36/16
f 2/2/17 3/37/17 6/38/17 5/3/17
f 29/21/18 30/39/18 70/40/18 68/41/18
f 8/5/17 9/42/17 12/43/17 11/7/17
f 20/13/6 17/11/6 60/44/6 59/45/6
f 14/9/17 15/46/17 18/47/17 17/11/17
f 2/35/16 47/33/16 79/48/16 49/49/16
f 20/13/17 21/50/17 24/51/17 23/15/17
f 27/52/19 26/20/19 63/53/19 65/54/19
f 26/20/17 27/52/17 30/39/17 29/21/17
f 6/38/10 9/42/10 53/55/10 54/56/10
f 32/23/17 33/57/17 36/58/17 35/25/17
f 36/58/4 39/59/4 73/60/4 74/61/4
f 38/27/17 39/59/17 42/62/17 41/29/17
f 23/15/20 24/51/20 66/63/20 64/64/20
f 44/31/17 45/65/17 48/66/17 47/33/17
f 21/50/21 20/13/21 59/45/21 61/67/21
f 52/68/17 54/56/17 53/55/17 51/69/17
f 56/70/17 58/71/17 57/72/17 55/73/17
f 60/44/17 62/74/17 61/67/17 59/45/17
f 64/64/17 66/63/17 65/75/17 63/76/17
f 68/41/17 70/40/17 69/77/17 67/78/17
f 72/79/17 74/61/17 73/60/17 71/80/17
f 76/81/17 78/82/17 77/83/17 75/84/17
f 79/48/17 80/85/17 50/86/17 49/49/17
f 33/57/22 32/23/22 67/78/22 69/77/22
f 48/66/8 3/87/8 50/86/8 80/85/8
f 18/47/14 21/50/14 61/67/14 62/74/14
f 35/25/23 36/58/23 74/61/23 72/79/23
f 32/23/10 29/21/10 68/41/10 67/78/10
f 39/59/24 38/27/24 71/80/24 73/60/24
f 3/37/25 2/2/25 49/88/25 50/89/25
f 41/29/26 42/62/26 78/82/26 76/81/26
f 30/39/2 33/57/2 69/77/2 70/40/2
f 44/31/14 41/29/14 76/81/14 75/84/14
f 14/9/4 11/7/4 56/70/4 55/73/4
f 45/65/27 44/31/27 75/84/27 77/83/27
f 5/3/28 6/38/28 54/56/28 52/68/28
f 47/33/29 48/66/29 80/85/29 79/48/29
f 9/42/30 8/5/30 51/69/30 53/55/30
f 42/62/6 45/65/6 77/83/6 78/82/6
f 12/43/12 15/46/12 57/72/12 58/71/12
f 11/7/31 12/43/31 58/71/31 56/70/31
f 26/17/8 23/15/8 64/64/8 63/76/8
f 15/46/32 14/9/32 55/73/32 57/72/32
f 17/11/33 18/47/33 62/74/33 60/44/33
f 24/51/16 27/90/16 65/75/16 66/63/16
f 38/27/12 35/25/12 72/79/12 71/80/12
f 8/5/2 5/3/2 52/68/2 51/69/2
f 48/66/8 96/91/8 81/92/8 3/87/8
f 45/65/7 95/93/7 96/91/7 48/66/7
f 42/62/6 94/94/6 95/93/6 45/65/6
f 39/59/5 93/95/5 94/94/5 42/62/5
f 36/58/4 92/96/4 93/95/4 39/59/4
f 33/57/3 91/97/3 92/96/3 36/58/3
f 30/39/2 90/98/2 91/97/2 33/57/2
f 27/52/1 89/99/1 90/98/1 30/39/1
f 24/51/16 88/100/16 89/101/16 27/90/16
f 21/50/15 87/102/15 88/100/15 24/51/15
f 18/47/14 86/103/14 87/102/14 21/50/14
f 15/46/13 85/104/13 86/103/13 18/47/13
f 12/43/12 84/105/12 85/104/12 15/46/12
f 9/42/11 83/106/11 84/105/11 12/43/11
f 6/38/10 82/107/10 83/106/10 9/42/10
f 3/37/9 81/108/9 82/107/9 6/38/9
f 96/109/17 95/110/17 94/111/17 93/112/17 92/113/17 91/114/17 90/115/17 89/116/17 88/117/17 87/118/17 86/119/17 85/120/17 84/121/17 83/122/17 82/123/17 81/124/17
