# Blender 4.5.2 LTS
# www.blender.org
mtllib rock-paltform-1side.mtl
o Cube
v 4.000257 0.999997 -3.000900
v 0.823233 1.014942 3.144019
v -3.765317 0.993329 2.858691
v 3.986697 0.983346 3.052047
v 2.824011 0.461362 3.038720
v -2.931420 -0.271874 2.896022
v 4.021562 -1.569727 1.201250
v 3.977067 -1.155096 3.314463
v -2.762827 -0.226263 1.429815
v -4.319777 0.291710 -0.772139
v -3.990809 1.023920 -0.999892
v -3.942173 0.605752 -1.859188
v -0.478224 0.216213 -3.166028
v -4.143970 -0.000410 1.504067
v -3.427686 0.961917 -2.908039
v -3.744606 0.083334 -2.852931
v 0.206887 0.960737 -2.970056
v 2.876114 -1.387987 -1.011357
v 2.139536 0.388508 -2.773995
v 2.538903 -0.289948 -3.192417
v -1.286546 -0.677235 -1.539418
v 2.032889 -0.953163 -1.829786
v -1.332925 -0.413594 -2.314512
v 1.986185 1.015424 -2.996023
v 0.073164 -0.584815 -2.837841
v 1.030127 -0.740966 -3.138194
v 3.976548 -0.298103 -2.872309
v 0.667334 -0.963664 -1.053760
v 0.265219 -0.618043 2.327223
v -3.013950 -0.188555 -1.710159
v -3.171736 -0.062012 -0.346224
v -2.094940 -0.448376 0.351949
v -0.729873 -0.575418 -0.180951
v -0.515616 -0.800599 1.405717
v -2.627274 -0.021217 2.123750
v 0.979587 -0.887087 1.114747
v 3.903856 -1.263556 -2.964890
v 1.949859 -1.041699 3.089867
v 4.163846 -1.515016 -1.383425
v 3.241759 -1.580871 1.753794
v 1.109318 -0.099890 3.468637
v 1.205187 -1.032162 2.976595
v -3.141145 0.553687 3.232848
v -3.834255 0.546711 2.624834
vn -0.6313 -0.2811 0.7228
vn -0.0107 0.2770 0.9608
vn -0.1625 -0.9216 -0.3525
vn -0.0906 -0.3958 0.9138
vn -0.1231 -0.4629 0.8778
vn 0.9998 0.0177 -0.0055
vn 0.0040 1.0000 0.0077
vn -0.9908 0.1221 0.0589
vn -0.3463 -0.9381 -0.0018
vn -0.9449 0.1723 -0.2784
vn -0.9325 0.3508 0.0865
vn -0.0163 0.2686 -0.9631
vn -0.0066 -0.0602 -0.9982
vn -0.0170 0.0792 -0.9967
vn -0.0032 -0.0985 -0.9951
vn 0.9998 -0.0180 0.0022
vn -0.3955 -0.9184 -0.0118
vn -0.1702 -0.9757 -0.1381
vn -0.1971 -0.4848 -0.8521
vn 0.0077 1.0000 0.0015
vn -0.0035 -0.3346 -0.9424
vn 0.1786 0.5905 -0.7870
vn 0.1149 0.1526 -0.9816
vn -0.3308 -0.5437 -0.7713
vn -0.1864 -0.3682 -0.9109
vn -0.0570 0.0708 -0.9959
vn 0.2572 0.6124 -0.7475
vn -0.1700 -0.9850 -0.0295
vn 0.0101 0.9999 0.0028
vn 0.2171 0.0770 -0.9731
vn 0.0256 -0.9992 0.0316
vn -0.3189 -0.9434 -0.0908
vn -0.8899 0.4387 0.1250
vn -0.1377 -0.9422 0.3053
vn -0.2576 -0.9607 -0.1034
vn -0.3116 -0.9488 0.0520
vn -0.1639 -0.9850 -0.0534
vn 0.4980 -0.5223 0.6923
vn -0.0495 -0.9979 0.0424
vn -0.1384 -0.4734 0.8699
vn 0.9836 -0.0577 -0.1709
vn 0.0281 -0.0879 0.9957
vn -0.2664 -0.9638 0.0022
vn -0.1775 -0.9838 -0.0235
vn -0.1220 -0.9660 -0.2278
vn -0.4400 -0.8977 -0.0236
vn -0.0547 -0.9938 0.0969
vn -0.1386 -0.9830 -0.1208
vn -0.3628 -0.9308 0.0444
vn -0.1743 -0.9772 -0.1210
vn 0.0234 -0.1962 -0.9803
vn -0.3314 -0.9434 -0.0109
vn -0.1638 -0.9175 -0.3623
vn 0.0980 -0.9573 -0.2721
vn -0.1524 -0.9867 -0.0564
vn -0.6733 -0.7114 -0.2017
vn -0.0162 -0.9781 0.2075
vn -0.2128 -0.9083 0.3602
vn -0.3887 -0.9210 -0.0247
vn -0.0010 -0.9970 -0.0776
vn -0.1178 -0.9928 -0.0199
vn -0.8533 0.4482 -0.2664
vn -0.0105 0.9993 -0.0356
vn 0.7390 -0.6231 -0.2561
vn -0.2469 -0.9679 0.0465
vn -0.5933 -0.4287 0.6813
vn -0.2815 -0.9368 -0.2077
vn -0.1355 -0.9817 -0.1338
vn -0.1058 -0.9940 -0.0269
vn -0.6667 -0.5804 0.4676
vn -0.0758 -0.9788 0.1904
vn 0.9998 -0.0019 0.0214
vn 0.9735 0.2211 0.0583
vn -0.0320 -0.9973 -0.0653
vn -0.0660 0.1218 0.9904
vn 0.1350 0.3088 0.9415
vn -0.1475 -0.9863 -0.0736
vn 0.1503 0.2695 0.9512
vn -0.0047 1.0000 -0.0008
vn -0.1211 -0.4730 0.8727
vn -0.0523 0.6031 0.7960
vn -0.2317 -0.9197 0.3170
vn -0.8926 0.3009 -0.3357
vn -0.9137 0.3426 -0.2184
vt 0.022039 0.692869
vt 0.019108 0.728248
vt 0.000099 0.701839
vt 0.000099 0.878416
vt 0.044556 0.888912
vt 0.255316 0.726951
vt 0.300364 0.772006
vt 0.083301 0.721261
vt 0.053616 0.732575
vt 0.084907 0.891124
vt 0.083692 0.920484
vt 0.083872 0.998790
vt 0.560683 0.524203
vt 0.552942 0.827055
vt 0.456539 0.705848
vt 0.931296 0.911124
vt 0.722891 0.557808
vt 0.988748 0.726675
vt 0.015710 0.507799
vt 0.052291 0.528342
vt 0.095724 0.425333
vt 0.128470 0.490230
vt 0.051827 0.468834
vt 0.048979 0.636854
vt 0.049770 0.402591
vt 0.065827 0.204400
vt 0.103942 0.245786
vt 0.154683 0.223668
vt 0.068428 0.106933
vt 0.153875 0.011445
vt 0.084791 0.000099
vt 0.625254 0.533293
vt 0.338365 0.784068
vt 0.425604 0.588910
vt 0.415558 0.725622
vt 0.300736 0.459324
vt 0.221321 0.473679
vt 0.705285 0.869651
vt 0.103925 0.102560
vt 0.148011 0.088649
vt 0.162936 0.170426
vt 0.391467 0.535455
vt 0.356723 0.454120
vt 0.205443 0.020656
vt 0.307225 0.673411
vt 0.314201 0.560441
vt 0.228549 0.670485
vt 0.232044 0.588497
vt 0.113664 0.647638
vt 0.109153 0.684495
vt 0.108331 0.557536
vt 0.490048 0.587349
vt 0.507107 0.508816
vt 0.020807 0.955292
vt 0.001163 0.999901
vt 0.216648 0.515405
vt 0.158572 0.602030
vt 0.984460 0.627282
vt 0.442272 0.811109
s 0
usemtl Material.001
f 44/1/1 43/2/1 3/3/1
f 2/4/2 43/2/2 41/5/2
f 29/6/3 42/7/3 6/8/3
f 43/2/4 6/9/4 42/10/4
f 41/5/5 38/11/5 8/12/5
f 27/13/6 4/14/6 7/15/6
f 3/16/7 24/17/7 11/18/7
f 11/19/8 44/1/8 3/3/8
f 10/20/9 16/21/9 30/22/9
f 16/21/10 10/20/10 12/23/10
f 11/19/11 14/24/11 44/1/11
f 15/25/12 17/26/12 13/27/12
f 15/25/13 25/28/13 16/21/13
f 24/29/14 17/26/14 15/25/14
f 27/30/15 24/29/15 1/31/15
f 27/13/16 1/32/16 4/14/16
f 38/33/17 18/34/17 40/35/17
f 25/36/18 23/37/18 16/21/18
f 13/27/19 25/28/19 15/25/19
f 1/32/20 24/17/20 2/38/20
f 24/29/21 19/39/21 17/26/21
f 20/40/22 19/39/22 27/30/22
f 17/26/23 26/41/23 13/27/23
f 26/41/24 25/28/24 13/27/24
f 24/29/25 27/30/25 19/39/25
f 17/26/26 20/40/26 26/41/26
f 19/39/27 20/40/27 17/26/27
f 22/42/28 25/36/28 26/43/28
f 2/38/29 4/14/29 1/32/29
f 37/44/30 20/40/30 27/30/30
f 22/42/31 36/45/31 28/46/31
f 28/46/32 34/47/32 33/48/32
f 11/19/33 10/20/33 14/24/33
f 14/24/34 9/49/34 35/50/34
f 10/20/35 31/51/35 14/24/35
f 10/20/36 30/22/36 31/51/36
f 31/51/37 9/49/37 14/24/37
f 40/35/38 7/15/38 38/33/38
f 36/45/39 34/47/39 28/46/39
f 42/10/40 38/11/40 41/5/40
f 27/13/41 39/52/41 37/53/41
f 2/4/42 5/54/42 4/55/42
f 23/37/43 28/46/43 33/48/43
f 26/43/44 37/53/44 22/42/44
f 28/46/45 23/37/45 22/42/45
f 38/33/46 22/42/46 18/34/46
f 21/56/47 33/48/47 32/57/47
f 33/48/48 34/47/48 32/57/48
f 31/51/49 30/22/49 32/57/49
f 23/37/50 30/22/50 16/21/50
f 37/44/51 26/41/51 20/40/51
f 31/51/52 32/57/52 9/49/52
f 29/6/53 6/8/53 35/50/53
f 35/50/54 6/8/54 14/24/54
f 23/37/55 32/57/55 30/22/55
f 23/37/56 21/56/56 32/57/56
f 34/47/57 36/45/57 29/6/57
f 35/50/58 34/47/58 29/6/58
f 36/45/59 42/7/59 29/6/59
f 42/7/60 36/45/60 38/33/60
f 36/45/61 22/42/61 38/33/61
f 12/23/62 11/19/62 15/25/62
f 15/58/63 11/18/63 24/17/63
f 21/56/64 23/37/64 33/48/64
f 9/49/65 32/57/65 34/47/65
f 43/2/66 44/1/66 6/9/66
f 37/53/67 18/34/67 22/42/67
f 37/53/68 39/52/68 18/34/68
f 18/34/69 39/52/69 7/15/69
f 6/8/70 44/1/70 14/24/70
f 8/59/71 38/33/71 7/15/71
f 8/59/72 7/15/72 4/14/72
f 27/13/73 7/15/73 39/52/73
f 7/15/74 40/35/74 18/34/74
f 8/12/75 4/55/75 5/54/75
f 2/4/76 41/5/76 5/54/76
f 25/36/77 22/42/77 23/37/77
f 5/54/78 41/5/78 8/12/78
f 2/38/79 24/17/79 3/16/79
f 42/10/80 41/5/80 43/2/80
f 3/3/81 43/2/81 2/4/81
f 9/49/82 34/47/82 35/50/82
f 15/25/83 16/21/83 12/23/83
f 12/23/84 10/20/84 11/19/84
