# Blender 4.5.2 LTS
# www.blender.org
mtllib Wall.mtl
o Cube
v 1.013135 5.171596 -4.727064
v 0.454684 6.494155 -3.793313
v 1.318930 5.399684 -7.273095
v 1.261915 9.032915 -1.256445
v 0.965793 7.662154 -7.052058
v 1.000000 0.000000 -11.000000
v 1.305598 10.299215 -7.505610
v 1.601925 9.529155 -5.381700
v 1.340473 4.126405 -2.961804
v 1.162671 7.751422 -2.900546
v 1.009058 2.459618 -2.964780
v 1.000000 0.000000 1.000000
v 1.207826 3.265627 -5.374532
v 1.000000 12.000000 1.000000
v 1.000000 12.000000 -11.000000
v 1.197871 7.981639 -9.523782
v 1.257957 4.324447 -1.391632
v 1.161873 2.865140 -7.579165
v -1.000000 0.000000 -11.000000
v -1.000000 12.000000 -11.000000
v -1.000000 12.000000 1.000000
v -1.000000 0.000000 1.000000
vn 0.9815 0.1404 0.1305
vn 0.9685 -0.1579 -0.1924
vn 0.9439 0.2347 0.2322
vn 0.9981 0.0009 -0.0610
vn 0.9308 0.3631 0.0424
vn 0.9905 0.0590 0.1242
vn 0.7487 0.0479 -0.6612
vn 0.9978 0.0482 0.0464
vn 0.9804 -0.1963 0.0152
vn 0.9393 -0.3421 0.0247
vn 0.9904 -0.1142 0.0782
vn 0.9947 -0.0884 -0.0526
vn 0.9929 -0.0484 -0.1089
vn 0.9779 -0.1946 0.0759
vn 0.9959 -0.0866 0.0254
vn 1.0000 -0.0037 -0.0000
vn 0.9981 -0.0607 -0.0098
vn 0.9013 -0.4115 -0.1353
vn 0.9857 -0.1564 0.0624
vn 0.9933 -0.0000 0.1153
vn 0.9842 0.1768 -0.0000
vn 0.7300 0.6688 0.1406
vn 0.9835 0.1427 0.1108
vn 0.9807 -0.1950 0.0157
vn 0.9968 0.0208 -0.0771
vn 0.9911 -0.0000 -0.1329
vn -0.0000 -0.0000 -1.0000
vn -0.0000 -0.0000 1.0000
vn 0.9993 -0.0190 -0.0314
vn 0.9949 -0.0037 0.1006
vn 0.9855 0.1355 -0.1025
vn 0.9972 0.0717 0.0215
vn -0.0000 1.0000 -0.0000
vn -0.0000 -1.0000 -0.0000
vn -1.0000 -0.0000 -0.0000
vt 0.623590 0.380237
vt 0.608636 0.508164
vt 0.481665 0.367880
vt 0.634525 0.658178
vt 0.515585 0.614901
vt 0.432103 0.442894
vt 0.283511 0.588362
vt 0.291235 0.321593
vt 0.376349 0.514616
vt 0.380205 0.310953
vt 0.516527 0.260844
vt 0.379953 0.214920
vt 0.640690 0.237619
vt 0.748999 0.526982
vt 0.155250 0.076496
vt 0.834185 0.075684
vt 0.155250 0.756346
vt 0.832873 0.754789
vt 0.997822 0.997080
vt 0.666509 0.997080
vt 0.666509 0.941536
vt 0.997822 0.941536
vt 0.333243 0.997080
vt 0.002417 0.997080
vt 0.002417 0.941536
vt 0.333242 0.941536
vt 0.333243 0.806185
vt 0.666509 0.806185
vt 0.666509 0.861730
vt 0.333242 0.861730
s 0
usemtl Material.001
f 3/1/1 5/2/1 1/3/1
f 5/2/2 7/4/2 8/5/2
f 1/3/3 5/2/3 2/6/3
f 4/7/4 17/8/4 10/9/4
f 1/3/5 2/6/5 9/10/5
f 1/3/6 13/11/6 3/1/6
f 2/6/7 10/9/7 9/10/7
f 17/8/8 9/10/8 10/9/8
f 11/12/9 18/13/9 13/11/9
f 8/5/10 2/6/10 5/2/10
f 7/4/11 5/2/11 16/14/11
f 11/12/12 17/8/12 12/15/12
f 3/1/13 18/13/13 16/14/13
f 17/8/14 11/12/14 9/10/14
f 6/16/15 18/13/15 11/12/15
f 11/12/16 12/15/16 6/16/16
f 13/11/17 18/13/17 3/1/17
f 10/9/18 2/6/18 8/5/18
f 10/9/19 8/5/19 4/7/19
f 12/15/20 4/7/20 14/17/20
f 15/18/21 14/17/21 7/4/21
f 4/7/22 8/5/22 7/4/22
f 16/14/23 5/2/23 3/1/23
f 9/10/24 11/12/24 13/11/24
f 7/4/25 16/14/25 15/18/25
f 6/16/26 15/18/26 16/14/26
f 15/19/27 6/20/27 19/21/27 20/22/27
f 12/23/28 14/24/28 21/25/28 22/26/28
f 16/14/29 18/13/29 6/16/29
f 12/15/30 17/8/30 4/7/30
f 9/10/31 13/11/31 1/3/31
f 7/4/32 14/17/32 4/7/32
f 14/27/33 15/28/33 20/29/33 21/30/33
f 6/20/34 12/23/34 22/26/34 19/21/34
f 20/29/35 19/21/35 22/26/35 21/30/35
